<mxfile host="app.diagrams.net" modified="2024-04-01T16:36:04.501Z" agent="Mozilla/5.0 (X11; Linux x86_64; rv:109.0) Gecko/20100101 Firefox/115.0" version="24.2.0" etag="lfzQJyUS9_IhURVfzVX7" type="github">
  <diagram name="Page-1" id="TExCMHbaEgWxqu_zlrjF">
    <mxGraphModel>
      <root>
        <mxCell id="0" />
        <mxCell id="1" parent="0" />
      </root>
    </mxGraphModel>
  </diagram>
</mxfile>
